<?xml version="1.0" standalone="no"?><!DOCTYPE svg PUBLIC "-//W3C//DTD SVG 1.1//EN" "http://www.w3.org/Graphics/SVG/1.1/DTD/svg11.dtd"><svg t="1693806811067" class="icon" viewBox="0 0 1024 1024" version="1.1" xmlns="http://www.w3.org/2000/svg" p-id="5909" width="32" height="32" xmlns:xlink="http://www.w3.org/1999/xlink"><path d="M512 960.015c-123.814 0-230.565-44.029-317.293-130.839-87.972-88.024-130.712-191.913-130.712-317.6 0-125.719 42.74-229.608 130.712-317.6C262.35 122.667 351.837 78.47 452.9 66.814c43.885-3.672 63.876-3.773 113.246-0.135h0.1c6.73 0 64.515 8.455 112.708 26.174A34.484 34.484 0 0 1 655.2 157.6c-40.15-14.754-87.838-21.593-93.66-22.1-46.409-3.369-62.529-3.3-101.838-0.067-83.7 9.7-158.646 46.622-215.624 106.685C169.06 317.173 132.916 405.1 132.916 511.579c0 106.45 36.145 194.372 110.52 268.819S405.651 891.024 512 891.024c103.084 0 191.09-36.348 269.1-111.131 73.667-77.042 109.98-165.133 109.98-268.314 0-41.435-7.27-84.621-21.64-128.38-2.827-5.929-5.183-11.791-7.438-17.45-2.323-5.861-4.51-11.419-6.5-14.384a38.613 38.613 0 0 1-2.188-3.806c-0.034 0-17.5-28.6-62.63-29.172h-0.573c-40.552 0-53.106 19.268-57.852 26.544-0.235 0.371-0.538 0.775-0.874 1.246L574.123 678.125c-15.885 34.461-37.019 52.518-62.664 53.326-25.712 0.068-48.832-16.607-67.746-51.742L287.726 343.248a34.471 34.471 0 1 1 62.529-29.038l155.079 334.609c1.245 2.258 2.39 4.211 3.466 5.9q1.558-2.858 2.894-5.827L670.408 313.94a36.256 36.256 0 0 1 3.9-6.366c32-48.542 82.823-57.908 116.983-58.177 69.732 0.875 109.915 41.94 122.637 65.352 5.419 8.522 8.851 17.213 12.183 25.635 1.817 4.615 3.7 9.466 6.091 14.283a33.356 33.356 0 0 1 1.885 4.548C951.288 410.788 960 462.059 960 511.579c0 120.127-43.818 226.812-130.208 317.059C738.592 916.155 632.01 960.015 512 960.015z" fill="#2C6CEE" p-id="5910"></path></svg>